<svg width="1000" height="1000" viewBox="0 0 1000 1000" fill="none" xmlns="http://www.w3.org/2000/svg">
<circle cx="500" cy="500" r="500" fill="white"/>
<path d="M307.604 534.775C370.862 422.312 515.32 377.483 627.513 382.001C628.034 382.022 628.452 382.441 628.472 382.962C628.492 383.483 628.108 383.932 627.59 383.993C543.951 393.855 480.128 416.368 436.082 443.38C392 470.414 367.861 501.865 363.272 529.55C360.983 543.366 363.554 556.263 370.955 567.287C378.364 578.324 390.665 587.559 407.952 593.932C441.088 606.147 492.383 607.778 561.919 591.552L486.5 593.764C485.969 593.779 485.518 593.377 485.475 592.847C485.431 592.317 485.809 591.845 486.336 591.774C579.647 579.037 629.874 565.333 721.153 534.319C721.633 534.156 722.158 534.377 722.377 534.833C722.595 535.29 722.438 535.838 722.011 536.11C614.909 604.059 514.25 643.766 422.975 643.766C377.36 643.766 340.696 632.994 319.31 613.948C308.599 604.41 301.718 592.79 299.504 579.435C297.291 566.087 299.755 551.098 307.573 534.832L307.604 534.775ZM354.91 431.883C456.371 371.685 615.48 333.902 745.308 370.243C745.759 370.37 746.062 370.794 746.036 371.262C746.01 371.73 745.662 372.118 745.199 372.194L671.699 384.193C671.581 384.212 671.46 384.21 671.343 384.187C564.902 362.998 447.172 397.28 369.98 450.342C331.38 476.875 303.03 508.028 291.239 539.161C285.35 554.714 283.598 570.243 286.737 585.2C289.876 600.154 297.92 614.607 311.733 627.987C312.091 628.334 312.139 628.891 311.847 629.294C311.554 629.697 311.009 629.823 310.569 629.59C285.295 616.19 268.973 600.902 260.379 584.487C251.771 568.047 250.968 550.574 256.547 532.945C267.677 497.779 304.205 461.967 354.91 431.883Z" fill="black"/>
</svg>
